# xmcd
#
# Track frame offsets:
#	150
#	26974
#	56234
#	96828
#	188275
#	212122
#
# Disc length: 3344 seconds
#
# Revision: 0
# Processed by: cddbd v1.5.2PL0 Copyright (c) Steve Scherf et al.
# Submitted via: EasyCDDAExtractor 11.0.2.1
#
DISCID=500d0e06
DTITLE=Jolfey and Rievax - Naissance 
DYEAR=2000
DGENRE=Ambient
TTITLE0=Espoir
TTITLE1=Attente
TTITLE2=Patience
TTITLE3=Naissance
TTITLE4=Jeux et Tendrese
TTITLE5=Maman
EXTD=
EXTT0=
EXTT1=
EXTT2=
EXTT3=
EXTT4=
EXTT5=
PLAYORDER=
